<svg width="20" height="20" viewBox="0 0 20 20" fill="none" xmlns="http://www.w3.org/2000/svg">
<path d="M18.3334 10.0001C18.3334 14.6025 14.6025 18.3334 10.0001 18.3334M18.3334 10.0001C18.3334 5.39771 14.6025 1.66675 10.0001 1.66675M18.3334 10.0001H1.66675M10.0001 18.3334C5.39771 18.3334 1.66675 14.6025 1.66675 10.0001M10.0001 18.3334C7.86028 16.0866 6.66675 13.1028 6.66675 10.0001C6.66675 6.89736 7.86028 3.91354 10.0001 1.66675M10.0001 18.3334C12.1399 16.0866 13.3334 13.1028 13.3334 10.0001C13.3334 6.89736 12.1399 3.91354 10.0001 1.66675M1.66675 10.0001C1.66675 5.39771 5.39771 1.66675 10.0001 1.66675" stroke="white" stroke-width="1.66667" stroke-linecap="round" stroke-linejoin="round"/>
</svg>
