<svg width="20" height="20" viewBox="0 0 20 20" fill="none" xmlns="http://www.w3.org/2000/svg">
<path d="M18.17 10.23C18.17 9.56004 18.11 8.91004 18 8.29004H10V11.96H14.59C14.4944 12.4808 14.2945 12.977 14.0024 13.4186C13.7103 13.8602 13.3319 14.2383 12.89 14.53V16.67H15.63C17.23 15.19 18.17 13.02 18.17 10.23Z" fill="#4285F4"/>
<path d="M10 18.5001C12.3 18.5001 14.23 17.7401 15.64 16.4401L12.9 14.3001C12.14 14.8101 11.17 15.1101 10 15.1101C7.77 15.1101 5.88 13.6101 5.2 11.5801H2.37V13.7801C3.07505 15.2001 4.16321 16.3947 5.51152 17.2288C6.85984 18.0628 8.41455 18.5032 10 18.5001Z" fill="#34A853"/>
<path d="M5.19994 11.58C5.02723 11.0708 4.9361 10.5376 4.92994 9.99997C4.92994 9.44997 5.02994 8.91997 5.19994 8.41997V6.21997H2.36994C1.79249 7.39608 1.49474 8.68976 1.49995 9.99997C1.49995 11.37 1.82994 12.67 2.36994 13.78L5.19994 11.58Z" fill="#FBBC05"/>
<path d="M10 4.89002C11.26 4.89002 12.38 5.32002 13.27 6.17002L15.71 3.73002C14.1524 2.29901 12.1152 1.5034 10 1.50002C8.41455 1.49689 6.85984 1.93725 5.51152 2.77133C4.16321 3.60541 3.07505 4.79997 2.37 6.22002L5.2 8.42002C5.88 6.40002 7.77 4.89002 10 4.89002Z" fill="#EA4335"/>
</svg>
