<svg width="20" height="20" viewBox="0 0 20 20" fill="none" xmlns="http://www.w3.org/2000/svg">
<path d="M14.24 1H11.27V12.83C11.2416 13.5066 10.9535 14.1461 10.4654 14.6155C9.97738 15.0849 9.3271 15.348 8.64996 15.35C7.97281 15.348 7.32253 15.0849 6.83449 14.6155C6.34645 14.1461 6.05828 13.5066 6.02996 12.83C6.05828 12.1534 6.34645 11.5139 6.83449 11.0445C7.32253 10.5751 7.97281 10.312 8.64996 10.31C8.90996 10.31 9.14996 10.35 9.38996 10.41V7.44C9.14456 7.40801 8.89742 7.39131 8.64996 7.39C7.19495 7.3896 5.79755 7.95856 4.75663 8.97519C3.71571 9.99181 3.11391 11.3754 3.07996 12.83C3.11391 14.2846 3.71571 15.6682 4.75663 16.6848C5.79755 17.7014 7.19495 18.2704 8.64996 18.27C10.105 18.2704 11.5024 17.7014 12.5433 16.6848C13.5842 15.6682 14.186 14.2846 14.22 12.83V6.1C15.5369 7.04604 17.1184 7.55337 18.74 7.55V4.6C17.6891 4.61349 16.6662 4.26202 15.8455 3.60552C15.0249 2.94902 14.4575 2.02816 14.24 1Z" fill="#101010"/>
</svg>
