<svg width="18" height="18" viewBox="0 0 18 18" fill="none" xmlns="http://www.w3.org/2000/svg">
<path d="M12.75 1.5H5.25C3.17893 1.5 1.5 3.17893 1.5 5.25V12.75C1.5 14.8211 3.17893 16.5 5.25 16.5H12.75C14.8211 16.5 16.5 14.8211 16.5 12.75V5.25C16.5 3.17893 14.8211 1.5 12.75 1.5Z" stroke="white" stroke-width="1.125" stroke-linecap="round" stroke-linejoin="round"/>
<path d="M9 12.75C11.0711 12.75 12.75 11.0711 12.75 9C12.75 6.92893 11.0711 5.25 9 5.25C6.92893 5.25 5.25 6.92893 5.25 9C5.25 11.0711 6.92893 12.75 9 12.75Z" stroke="white" stroke-width="1.125" stroke-linecap="round" stroke-linejoin="round"/>
<path d="M13.125 5.625C13.5392 5.625 13.875 5.28921 13.875 4.875C13.875 4.46079 13.5392 4.125 13.125 4.125C12.7108 4.125 12.375 4.46079 12.375 4.875C12.375 5.28921 12.7108 5.625 13.125 5.625Z" fill="white"/>
</svg>
