<svg width="84" height="35" viewBox="0 0 84 35" fill="none" xmlns="http://www.w3.org/2000/svg">
<path fill-rule="evenodd" clip-rule="evenodd" d="M24.7078 25.9164C24.5948 25.9572 24.5984 26.0669 24.5659 26.1456C24.0873 27.2814 23.6507 28.4352 23.1266 29.5499C22.8581 30.1216 22.8752 30.5544 23.3088 31.0211C23.6093 31.3443 23.8312 31.7369 24.0944 32.0944C24.273 32.3377 24.4617 32.5728 24.7084 32.8936L24.7078 25.9164ZM66.179 9.35494C66.179 9.06094 66.1979 8.7646 66.1754 8.47177C66.0264 6.47794 65.2958 4.76585 63.6755 3.47377C63.3668 3.2276 63.1757 3.24627 62.8829 3.4971C60.0931 5.88177 59.4395 11.8621 64.0506 14.2176C64.4369 14.4148 64.609 14.3518 64.8326 14.0228C65.7968 12.6064 66.2216 11.0454 66.179 9.35494ZM34.5258 1.97752C34.3779 2.06852 34.3637 2.22719 34.3099 2.35727C31.652 8.82585 28.9977 15.295 26.3441 21.7642C26.1684 22.1918 26.1743 22.2005 26.6517 22.2005C31.7686 22.2017 36.8843 22.2017 42.0006 22.2005C42.5389 22.2005 42.5383 22.1988 42.3378 21.6889C39.8178 15.2828 37.2978 8.8766 34.7742 2.47219C34.7092 2.30535 34.6884 2.10877 34.5258 1.97869M60.1765 17.962C60.8515 18.1324 61.4206 18.2595 61.9802 18.4205C63.7767 18.9339 65.1479 19.943 65.8944 21.6784C66.2423 22.4881 66.441 23.3339 66.5434 24.2002C66.7504 25.9724 66.696 27.7568 66.7847 29.5336C66.8421 30.6974 66.9362 31.8559 67.1195 33.0068C67.1663 33.3014 67.3047 33.4524 67.6022 33.5114C68.4576 33.6823 69.3166 33.8194 70.1897 33.88C72.718 34.0521 75.2031 33.8917 77.5977 32.9846C79.1966 32.3779 80.6004 31.4889 81.6089 30.114C83.0299 28.1779 83.257 26.0144 82.653 23.7557C82.0923 21.6569 80.5832 20.384 78.6518 19.516C76.9907 18.7694 75.2173 18.3873 73.4509 17.9778C70.6002 17.3157 67.7022 16.8286 64.9503 15.7944C64.8084 15.7413 64.6954 15.743 64.5753 15.8451C63.3354 16.9103 61.8755 17.5426 60.1765 17.962ZM43.9486 9.65244C43.9486 12.1304 43.9503 14.6073 43.945 17.0853C43.9438 17.3577 43.9639 17.542 44.3283 17.5379C48.8981 17.4825 53.4695 17.6616 58.0369 17.4411C59.9973 17.346 61.7873 16.6664 63.381 15.519C63.633 15.3364 63.63 15.2344 63.3514 15.0745C62.4854 14.5787 61.7045 13.9738 61.0763 13.1985C60.1878 12.1019 59.7985 10.8255 59.6814 9.4471C59.4702 6.97494 60.0854 4.77635 61.8613 2.94877C62.1724 2.62852 62.173 2.6186 61.7394 2.48327C60.2594 2.0201 58.7361 1.8206 57.1874 1.81827C52.9437 1.81127 48.7005 1.82119 44.4573 1.8066C44.0249 1.80485 43.9379 1.95069 43.9409 2.34035C43.9562 4.77869 43.9486 7.21585 43.9486 9.65244ZM70.8664 34.9983C69.975 34.8991 69.0758 34.8682 68.1903 34.6967C65.6661 34.2084 63.3472 33.3224 61.5205 31.4481C59.9488 29.8364 59.1378 27.8869 58.8089 25.7139C58.6965 24.9731 58.648 24.2259 58.6314 23.4751C58.6225 23.0423 58.8929 23.0493 59.1845 23.0242C59.4791 22.9991 59.6696 23.044 59.6921 23.4121C59.7613 24.5479 59.8689 25.6801 60.157 26.7896C60.9284 29.7623 62.8143 31.7666 65.6643 32.9444C65.9364 33.0569 66.0447 33.0044 65.998 32.6994C65.659 30.5084 65.6413 28.2987 65.6081 26.0902C65.5898 24.8384 65.4555 23.6017 65.0101 22.4199C64.302 20.545 62.8409 19.5283 60.9408 19.0278C59.8145 18.7303 58.6622 18.6089 57.4998 18.6078C53.1596 18.6049 48.8194 18.6113 44.478 18.599C44.0698 18.5979 43.9243 18.704 43.9438 19.1182C43.9953 20.202 43.8989 21.2876 43.9983 22.3714C44.0645 23.0831 44.4112 23.7003 44.6667 24.3443C45.8995 27.4511 47.1553 30.5498 48.4029 33.6514C48.4479 33.7634 48.4934 33.8754 48.5301 33.9903C48.5544 34.0708 48.5502 34.1425 48.4574 34.1933C48.1042 34.3864 47.4162 34.1571 47.2654 33.7873C46.3359 31.4987 45.4069 29.2099 44.4786 26.9209L44.0935 25.9724L44.0201 25.991C43.9977 26.4548 43.9574 26.9185 43.9563 27.3817C43.9497 29.4846 43.9551 31.5887 43.9509 33.6916C43.9503 33.8573 44.0296 34.0859 43.8338 34.1659C43.5824 34.2685 43.2949 34.2528 43.0317 34.1699C42.8932 34.1256 42.9193 33.9699 42.9187 33.852C42.9145 33.4635 42.9157 33.075 42.9157 32.6859L42.9169 23.8041C42.9169 23.2756 42.9157 23.2739 42.3691 23.2739H26.3168C25.7655 23.2739 25.7643 23.2756 25.7643 23.8409L25.7655 33.607C25.7655 34.216 25.7596 34.1694 25.1698 34.2289C24.4878 34.3 24.0512 34.0696 23.7087 33.4904C23.3668 32.9129 22.9355 32.3879 22.5404 31.8407C22.4872 31.7672 22.4552 31.6435 22.3505 31.6482C22.2145 31.6529 22.2168 31.8022 22.179 31.8926C21.8974 32.5611 21.6288 33.2343 21.3478 33.9022C21.2337 34.1723 20.3321 34.3706 20.1281 34.1717C20.0003 34.0474 20.1168 33.9185 20.1647 33.8042C20.5433 32.886 20.9036 31.9591 21.3212 31.0561C21.5146 30.6384 21.4661 30.3409 21.197 29.9699C17.9659 25.5191 14.755 21.0537 11.5346 16.5959C8.11665 11.8639 4.69513 7.13535 1.27479 2.4051C1.22037 2.32985 1.16239 2.25635 1.03048 2.08135V2.63902L1.0293 33.3043C1.0293 33.4384 1.02989 33.5726 1.0287 33.7068C1.02397 34.1594 0.539493 34.4126 0.125408 34.1822C0.0260282 34.1274 0.0100563 34.0399 0.00591549 33.9454C0 33.8112 0 33.677 0 33.5434V1.43094C0 0.748435 0.00354925 0.787519 0.689155 0.735602C1.26414 0.691852 1.59777 0.900685 1.92668 1.35802C7.5458 9.17235 13.1821 16.9739 18.8166 24.7771C19.8104 26.1544 20.8066 27.5299 21.8057 28.9042C21.8719 28.9946 21.9063 29.1579 22.0589 29.1259C22.1713 29.1014 22.1831 28.9608 22.2221 28.8634C22.9977 26.9897 23.7732 25.1172 24.5446 23.2418C24.7061 22.8509 24.7374 22.4391 24.7374 22.0191C24.7327 15.12 24.7321 8.22035 24.7303 1.32127C24.7303 0.775852 24.754 0.750769 25.2497 0.750769C25.7359 0.750769 25.7661 0.779352 25.7661 1.28452L25.7691 17.6027V20.0142C25.9986 19.9325 25.995 19.7931 26.0347 19.6957C28.5606 13.5771 31.0806 7.45502 33.6071 1.33644C33.6911 1.13402 33.7006 0.838269 33.9591 0.782269C34.3205 0.7034 34.6951 0.704995 35.0558 0.786935C35.2628 0.835352 35.2824 1.0716 35.3516 1.24194C36.9872 5.30194 38.6246 9.36077 40.2555 13.4231C41.0707 15.4537 41.8728 17.4901 42.6821 19.5236C42.7104 19.5954 42.7424 19.6665 42.7726 19.7389L42.9122 19.733V17.3163L42.9163 1.35977C42.9163 0.748435 42.9181 0.747269 43.5558 0.747269C47.8019 0.746685 52.0469 0.740269 56.2918 0.750769C57.9985 0.754269 59.6997 0.847019 61.362 1.28627C61.8642 1.41927 62.3511 1.5931 62.8243 1.80019C63.0438 1.89644 63.2236 1.89994 63.4377 1.78035C65.6507 0.542519 68.0583 0.058352 70.5795 0.00760202C72.579 -0.0320647 74.5618 0.0688521 76.4885 0.662102C80.4182 1.87194 82.5702 4.5471 83.1801 8.48927C83.2517 8.95185 83.2801 9.42027 83.3256 9.88635C83.354 10.1728 83.1925 10.276 82.9287 10.2533C82.6838 10.2317 82.3549 10.3816 82.3093 9.94294C82.207 8.98394 82.0692 8.0296 81.7906 7.10094C80.9961 4.45552 79.2049 2.75335 76.6009 1.82585C75.2421 1.34169 73.8295 1.15619 72.3914 1.07277C70.2151 0.945019 68.0897 1.15794 66.0157 1.82877C65.4969 1.99677 64.9929 2.20094 64.5037 2.44127C64.3044 2.54044 64.305 2.61044 64.473 2.7481C66.2251 4.18369 66.9853 6.0906 67.2154 8.26352C67.4106 10.1156 67.216 11.8994 66.3624 13.5829C66.1985 13.9055 66.0163 14.2258 65.7962 14.5122C65.5715 14.805 65.6235 14.9194 65.9696 15.0325C67.6028 15.5663 69.2781 15.9425 70.9516 16.3246C73.277 16.856 75.6047 17.3775 77.8775 18.1044C78.931 18.4427 79.9497 18.8697 80.876 19.4711C82.4827 20.5135 83.4552 21.9812 83.8184 23.8374C83.8385 23.9412 83.8675 24.0444 83.8923 24.1477V27.6045C83.8551 27.7329 83.8131 27.8589 83.7823 27.9895C83.4327 29.4934 82.6803 30.7697 81.5344 31.8232C79.784 33.4314 77.6521 34.2481 75.3433 34.7043C74.4879 34.8734 73.6177 34.9026 72.7541 35C72.1223 34.9989 71.4946 34.9983 70.8664 34.9983Z" fill="white"/>
</svg>
