<svg width="18" height="18" viewBox="0 0 18 18" fill="none" xmlns="http://www.w3.org/2000/svg">
<path d="M6.75 9C6.15666 9 5.57664 9.17595 5.08329 9.50559C4.58994 9.83524 4.20543 10.3038 3.97836 10.8519C3.7513 11.4001 3.69189 12.0033 3.80765 12.5853C3.9234 13.1672 4.20912 13.7018 4.62868 14.1213C5.04824 14.5409 5.58279 14.8266 6.16473 14.9424C6.74667 15.0581 7.34987 14.9987 7.89805 14.7716C8.44623 14.5446 8.91477 14.1601 9.24441 13.6667C9.57405 13.1734 9.75 12.5933 9.75 12V3C9.75 3.99456 10.1451 4.94839 10.8484 5.65165C11.5516 6.35491 12.5054 6.75 13.5 6.75" stroke="white" stroke-width="1.125" stroke-linecap="round"/>
</svg>
