<svg width="18" height="18" viewBox="0 0 18 18" fill="none" xmlns="http://www.w3.org/2000/svg">
<path d="M16.9051 4.815C16.8119 4.46231 16.6277 4.14024 16.3711 3.88097C16.1145 3.6217 15.7943 3.43431 15.4426 3.3375C14.1601 3 9.00007 3 9.00007 3C9.00007 3 3.84007 3 2.55757 3.3375C2.20584 3.43431 1.88567 3.6217 1.62904 3.88097C1.3724 4.14024 1.18828 4.46231 1.09507 4.815C0.845358 6.19561 0.72982 7.59714 0.750068 9C0.72982 10.4029 0.845358 11.8044 1.09507 13.185C1.18828 13.5377 1.3724 13.8598 1.62904 14.119C1.88567 14.3783 2.20584 14.5657 2.55757 14.6625C3.84007 15 9.00007 15 9.00007 15C9.00007 15 14.1601 15 15.4426 14.6625C15.7943 14.5657 16.1145 14.3783 16.3711 14.119C16.6277 13.8598 16.8119 13.5377 16.9051 13.185C17.1548 11.8044 17.2703 10.4029 17.2501 9C17.2703 7.59714 17.1548 6.19561 16.9051 4.815Z" stroke="white" stroke-width="1.125" stroke-linecap="round" stroke-linejoin="round"/>
<path d="M7.3125 11.2651L11.625 9.00011L7.3125 6.73511V11.2651Z" fill="white"/>
</svg>
