<svg xmlns="http://www.w3.org/2000/svg" xmlns:xlink="http://www.w3.org/1999/xlink" width="1055" height="434" viewBox="0 0 1055 434"><defs><style>.a{clip-path:url(#b);}</style><clipPath id="b"><rect width="1055" height="434"/></clipPath></defs><g id="a" class="a"><g transform="translate(-154.31 -370.657)"><path d="M109.721,276.127a85.351,85.351,0,0,0,58.455-22.834v15.984h79.919V-50.4h-82.2V58.29a87.414,87.414,0,0,0-58-21.464c-61.2,0-105.95,51.148-105.95,121.02C1.944,225.892,47.612,276.127,109.721,276.127ZM81.406,156.476c0-24.2,19.181-43.385,42.471-43.385s42.015,19.181,42.015,43.385c0,24.661-18.724,43.385-42.015,43.385S81.406,181.137,81.406,156.476Zm409.643-112.8h-82.2V164.7c0,21.921-13.7,36.078-31.511,36.078s-27.4-14.157-27.4-31.968V43.676h-82.2V171.09c0,65.305,31.511,105.037,79.919,105.037,26.487,0,48.408-11.874,63.479-30.6v23.747h79.919ZM623.943,276.127c63.935,0,104.123-38.361,113.714-81.289H657.281c-3.2,6.85-15.07,14.614-28.771,14.614-18.267,0-34.708-10.96-41.1-31.511H739.484A231.735,231.735,0,0,0,741.31,147.8c0-61.652-48.865-110.973-113.714-110.973-65.762,0-120.564,54.8-120.564,121.477C507.033,227.719,558.181,276.127,623.943,276.127ZM590.606,125.879c6.85-16.441,20.094-25.117,36.534-25.117,17.354,0,29.228,11.874,31.054,25.117ZM839.5-50.4h-82.2V269.277h82.2Z" transform="translate(188.366 460.677)"/><rect width="83.065" height="83.065" transform="translate(1076.943 631.57) rotate(19)"/></g></g></svg>